<?xml version="1.0" encoding="UTF-8" standalone="no"?><svg xmlns="http://www.w3.org/2000/svg" xmlns:xlink="http://www.w3.org/1999/xlink" contentStyleType="text/css" height="1850px" preserveAspectRatio="none" style="width:1618px;height:1850px;background:#FFFFFF;" version="1.1" viewBox="0 0 1618 1850" width="1618px" zoomAndPan="magnify"><defs/><g><rect fill="none" height="275.0625" style="stroke:#000000;stroke-width:1.5;" width="667" x="542" y="358.3594"/><rect fill="none" height="101.3984" style="stroke:#000000;stroke-width:1.5;" width="284" x="915" y="525.0234"/><rect fill="none" height="221.9297" style="stroke:#000000;stroke-width:1.5;" width="1152" x="192" y="790.9531"/><rect fill="none" height="88.3984" style="stroke:#000000;stroke-width:1.5;" width="1132" x="202" y="917.4844"/><rect fill="none" height="59.2656" style="stroke:#000000;stroke-width:1.5;" width="234" x="1124.5" y="1199.5469"/><rect fill="none" height="278.1953" style="stroke:#000000;stroke-width:1.5;" width="1015" x="325" y="1374.2109"/><line style="stroke:#181818;stroke-width:0.5;stroke-dasharray:5.0,5.0;" x1="33" x2="33" y1="81.2969" y2="1769.8047"/><line style="stroke:#181818;stroke-width:0.5;stroke-dasharray:5.0,5.0;" x1="99" x2="99" y1="81.2969" y2="1769.8047"/><line style="stroke:#181818;stroke-width:0.5;stroke-dasharray:5.0,5.0;" x1="267" x2="267" y1="81.2969" y2="1769.8047"/><line style="stroke:#181818;stroke-width:0.5;stroke-dasharray:5.0,5.0;" x1="389" x2="389" y1="81.2969" y2="1769.8047"/><line style="stroke:#181818;stroke-width:0.5;stroke-dasharray:5.0,5.0;" x1="610" x2="610" y1="81.2969" y2="1769.8047"/><line style="stroke:#181818;stroke-width:0.5;stroke-dasharray:5.0,5.0;" x1="773.5" x2="773.5" y1="81.2969" y2="1769.8047"/><line style="stroke:#181818;stroke-width:0.5;stroke-dasharray:5.0,5.0;" x1="973" x2="973" y1="81.2969" y2="1769.8047"/><line style="stroke:#181818;stroke-width:0.5;stroke-dasharray:5.0,5.0;" x1="1193.5" x2="1193.5" y1="81.2969" y2="1769.8047"/><line style="stroke:#181818;stroke-width:0.5;stroke-dasharray:5.0,5.0;" x1="1427" x2="1427" y1="81.2969" y2="1769.8047"/><text fill="#000000" font-family="sans-serif" font-size="14" lengthAdjust="spacing" textLength="50" x="5" y="77.9951">Player1</text><ellipse cx="33" cy="13.5" fill="#E2E2F0" rx="8" ry="8" style="stroke:#181818;stroke-width:0.5;"/><path d="M33,21.5 L33,48.5 M20,29.5 L46,29.5 M33,48.5 L20,63.5 M33,48.5 L46,63.5 " fill="none" style="stroke:#181818;stroke-width:0.5;"/><text fill="#000000" font-family="sans-serif" font-size="14" lengthAdjust="spacing" textLength="50" x="5" y="1781.7998">Player1</text><ellipse cx="33" cy="1793.6016" fill="#E2E2F0" rx="8" ry="8" style="stroke:#181818;stroke-width:0.5;"/><path d="M33,1801.6016 L33,1828.6016 M20,1809.6016 L46,1809.6016 M33,1828.6016 L20,1843.6016 M33,1828.6016 L46,1843.6016 " fill="none" style="stroke:#181818;stroke-width:0.5;"/><text fill="#000000" font-family="sans-serif" font-size="14" lengthAdjust="spacing" textLength="50" x="71" y="77.9951">Player2</text><ellipse cx="99" cy="13.5" fill="#E2E2F0" rx="8" ry="8" style="stroke:#181818;stroke-width:0.5;"/><path d="M99,21.5 L99,48.5 M86,29.5 L112,29.5 M99,48.5 L86,63.5 M99,48.5 L112,63.5 " fill="none" style="stroke:#181818;stroke-width:0.5;"/><text fill="#000000" font-family="sans-serif" font-size="14" lengthAdjust="spacing" textLength="50" x="71" y="1781.7998">Player2</text><ellipse cx="99" cy="1793.6016" fill="#E2E2F0" rx="8" ry="8" style="stroke:#181818;stroke-width:0.5;"/><path d="M99,1801.6016 L99,1828.6016 M86,1809.6016 L112,1809.6016 M99,1828.6016 L86,1843.6016 M99,1828.6016 L112,1843.6016 " fill="none" style="stroke:#181818;stroke-width:0.5;"/><rect fill="#E2E2F0" height="30.2969" rx="2.5" ry="2.5" style="stroke:#181818;stroke-width:0.5;" width="110" x="212" y="50"/><text fill="#000000" font-family="sans-serif" font-size="14" lengthAdjust="spacing" textLength="96" x="219" y="69.9951">Event Handler</text><rect fill="#E2E2F0" height="30.2969" rx="2.5" ry="2.5" style="stroke:#181818;stroke-width:0.5;" width="110" x="212" y="1768.8047"/><text fill="#000000" font-family="sans-serif" font-size="14" lengthAdjust="spacing" textLength="96" x="219" y="1788.7998">Event Handler</text><rect fill="#E2E2F0" height="30.2969" rx="2.5" ry="2.5" style="stroke:#181818;stroke-width:0.5;" width="108" x="335" y="50"/><text fill="#000000" font-family="sans-serif" font-size="14" lengthAdjust="spacing" textLength="94" x="342" y="69.9951">Bullet System</text><rect fill="#E2E2F0" height="30.2969" rx="2.5" ry="2.5" style="stroke:#181818;stroke-width:0.5;" width="108" x="335" y="1768.8047"/><text fill="#000000" font-family="sans-serif" font-size="14" lengthAdjust="spacing" textLength="94" x="342" y="1788.7998">Bullet System</text><rect fill="#E2E2F0" height="30.2969" rx="2.5" ry="2.5" style="stroke:#181818;stroke-width:0.5;" width="116" x="552" y="50"/><text fill="#000000" font-family="sans-serif" font-size="14" lengthAdjust="spacing" textLength="102" x="559" y="69.9951">Enemy System</text><rect fill="#E2E2F0" height="30.2969" rx="2.5" ry="2.5" style="stroke:#181818;stroke-width:0.5;" width="116" x="552" y="1768.8047"/><text fill="#000000" font-family="sans-serif" font-size="14" lengthAdjust="spacing" textLength="102" x="559" y="1788.7998">Enemy System</text><rect fill="#E2E2F0" height="30.2969" rx="2.5" ry="2.5" style="stroke:#181818;stroke-width:0.5;" width="133" x="707.5" y="50"/><text fill="#000000" font-family="sans-serif" font-size="14" lengthAdjust="spacing" textLength="119" x="714.5" y="69.9951">Collision Checker</text><rect fill="#E2E2F0" height="30.2969" rx="2.5" ry="2.5" style="stroke:#181818;stroke-width:0.5;" width="133" x="707.5" y="1768.8047"/><text fill="#000000" font-family="sans-serif" font-size="14" lengthAdjust="spacing" textLength="119" x="714.5" y="1788.7998">Collision Checker</text><rect fill="#E2E2F0" height="30.2969" rx="2.5" ry="2.5" style="stroke:#181818;stroke-width:0.5;" width="96" x="925" y="50"/><text fill="#000000" font-family="sans-serif" font-size="14" lengthAdjust="spacing" textLength="82" x="932" y="69.9951">Buff System</text><rect fill="#E2E2F0" height="30.2969" rx="2.5" ry="2.5" style="stroke:#181818;stroke-width:0.5;" width="96" x="925" y="1768.8047"/><text fill="#000000" font-family="sans-serif" font-size="14" lengthAdjust="spacing" textLength="82" x="932" y="1788.7998">Buff System</text><rect fill="#E2E2F0" height="30.2969" rx="2.5" ry="2.5" style="stroke:#181818;stroke-width:0.5;" width="119" x="1134.5" y="50"/><text fill="#000000" font-family="sans-serif" font-size="14" lengthAdjust="spacing" textLength="105" x="1141.5" y="69.9951">Game Manager</text><rect fill="#E2E2F0" height="30.2969" rx="2.5" ry="2.5" style="stroke:#181818;stroke-width:0.5;" width="119" x="1134.5" y="1768.8047"/><text fill="#000000" font-family="sans-serif" font-size="14" lengthAdjust="spacing" textLength="105" x="1141.5" y="1788.7998">Game Manager</text><rect fill="#E2E2F0" height="30.2969" rx="2.5" ry="2.5" style="stroke:#181818;stroke-width:0.5;" width="156" x="1349" y="50"/><text fill="#000000" font-family="sans-serif" font-size="14" lengthAdjust="spacing" textLength="142" x="1356" y="69.9951">Leaderboard System</text><rect fill="#E2E2F0" height="30.2969" rx="2.5" ry="2.5" style="stroke:#181818;stroke-width:0.5;" width="156" x="1349" y="1768.8047"/><text fill="#000000" font-family="sans-serif" font-size="14" lengthAdjust="spacing" textLength="142" x="1356" y="1788.7998">Leaderboard System</text><rect fill="#EEEEEE" height="3" style="stroke:#EEEEEE;stroke-width:1.0;" width="1611" x="0" y="111.8633"/><line style="stroke:#000000;stroke-width:1.0;" x1="0" x2="1611" y1="111.8633" y2="111.8633"/><line style="stroke:#000000;stroke-width:1.0;" x1="0" x2="1611" y1="114.8633" y2="114.8633"/><rect fill="#EEEEEE" height="23.1328" style="stroke:#000000;stroke-width:2.0;" width="205" x="703" y="101.2969"/><text fill="#000000" font-family="sans-serif" font-size="13" font-weight="bold" lengthAdjust="spacing" textLength="186" x="709" y="117.3638">1. Attack and Buff Phase</text><polygon fill="#181818" points="255,151.5625,265,155.5625,255,159.5625,259,155.5625" style="stroke:#181818;stroke-width:1.0;"/><line style="stroke:#181818;stroke-width:1.0;" x1="33" x2="261" y1="155.5625" y2="155.5625"/><text fill="#000000" font-family="sans-serif" font-size="13" lengthAdjust="spacing" textLength="106" x="40" y="150.4966">Press fire key (F)</text><polygon fill="#181818" points="377,180.6953,387,184.6953,377,188.6953,381,184.6953" style="stroke:#181818;stroke-width:1.0;"/><line style="stroke:#181818;stroke-width:1.0;" x1="267" x2="383" y1="184.6953" y2="184.6953"/><text fill="#000000" font-family="sans-serif" font-size="13" lengthAdjust="spacing" textLength="98" x="274" y="179.6294">P1 fires a bullet</text><polygon fill="#181818" points="255,209.8281,265,213.8281,255,217.8281,259,213.8281" style="stroke:#181818;stroke-width:1.0;"/><line style="stroke:#181818;stroke-width:1.0;" x1="99" x2="261" y1="213.8281" y2="213.8281"/><text fill="#000000" font-family="sans-serif" font-size="13" lengthAdjust="spacing" textLength="106" x="106" y="208.7622">Press fire key (L)</text><polygon fill="#181818" points="377,238.9609,387,242.9609,377,246.9609,381,242.9609" style="stroke:#181818;stroke-width:1.0;"/><line style="stroke:#181818;stroke-width:1.0;" x1="267" x2="383" y1="242.9609" y2="242.9609"/><text fill="#000000" font-family="sans-serif" font-size="13" lengthAdjust="spacing" textLength="98" x="274" y="237.895">P2 fires a bullet</text><line style="stroke:#181818;stroke-width:1.0;" x1="389" x2="431" y1="272.0938" y2="272.0938"/><line style="stroke:#181818;stroke-width:1.0;" x1="431" x2="431" y1="272.0938" y2="285.0938"/><line style="stroke:#181818;stroke-width:1.0;" x1="390" x2="431" y1="285.0938" y2="285.0938"/><polygon fill="#181818" points="400,281.0938,390,285.0938,400,289.0938,396,285.0938" style="stroke:#181818;stroke-width:1.0;"/><text fill="#000000" font-family="sans-serif" font-size="13" lengthAdjust="spacing" textLength="133" x="396" y="267.0278">Bullets move upward</text><polygon fill="#181818" points="762,310.2266,772,314.2266,762,318.2266,766,314.2266" style="stroke:#181818;stroke-width:1.0;"/><line style="stroke:#181818;stroke-width:1.0;" x1="389" x2="768" y1="314.2266" y2="314.2266"/><text fill="#000000" font-family="sans-serif" font-size="13" lengthAdjust="spacing" textLength="164" x="396" y="309.1606">Check if bullet hits enemy</text><polygon fill="#181818" points="621,339.3594,611,343.3594,621,347.3594,617,343.3594" style="stroke:#181818;stroke-width:1.0;"/><line style="stroke:#181818;stroke-width:1.0;" x1="615" x2="773" y1="343.3594" y2="343.3594"/><text fill="#000000" font-family="sans-serif" font-size="13" lengthAdjust="spacing" textLength="140" x="627" y="338.2935">Enemy takes damage</text><path d="M542,358.3594 L606,358.3594 L606,365.4922 L596,375.4922 L542,375.4922 L542,358.3594 " fill="#EEEEEE" style="stroke:#000000;stroke-width:1.5;"/><rect fill="none" height="275.0625" style="stroke:#000000;stroke-width:1.5;" width="667" x="542" y="358.3594"/><text fill="#000000" font-family="sans-serif" font-size="13" font-weight="bold" lengthAdjust="spacing" textLength="19" x="557" y="371.4263">alt</text><text fill="#000000" font-family="sans-serif" font-size="11" font-weight="bold" lengthAdjust="spacing" textLength="120" x="621" y="370.5698">[If enemy HP &lt;= 0]</text><line style="stroke:#181818;stroke-width:1.0;" x1="610" x2="652" y1="396.625" y2="396.625"/><line style="stroke:#181818;stroke-width:1.0;" x1="652" x2="652" y1="396.625" y2="409.625"/><line style="stroke:#181818;stroke-width:1.0;" x1="611" x2="652" y1="409.625" y2="409.625"/><polygon fill="#181818" points="621,405.625,611,409.625,621,413.625,617,409.625" style="stroke:#181818;stroke-width:1.0;"/><text fill="#000000" font-family="sans-serif" font-size="13" lengthAdjust="spacing" textLength="105" x="617" y="391.5591">Enemy explodes</text><polygon fill="#181818" points="961,434.7578,971,438.7578,961,442.7578,965,438.7578" style="stroke:#181818;stroke-width:1.0;"/><line style="stroke:#181818;stroke-width:1.0;" x1="610" x2="967" y1="438.7578" y2="438.7578"/><text fill="#000000" font-family="sans-serif" font-size="13" lengthAdjust="spacing" textLength="89" x="617" y="433.6919">Drop treasure</text><line style="stroke:#181818;stroke-width:1.0;" x1="973" x2="1015" y1="467.8906" y2="467.8906"/><line style="stroke:#181818;stroke-width:1.0;" x1="1015" x2="1015" y1="467.8906" y2="480.8906"/><line style="stroke:#181818;stroke-width:1.0;" x1="974" x2="1015" y1="480.8906" y2="480.8906"/><polygon fill="#181818" points="984,476.8906,974,480.8906,984,484.8906,980,480.8906" style="stroke:#181818;stroke-width:1.0;"/><text fill="#000000" font-family="sans-serif" font-size="13" lengthAdjust="spacing" textLength="122" x="980" y="462.8247">Treasure falls down</text><polygon fill="#181818" points="785,506.0234,775,510.0234,785,514.0234,781,510.0234" style="stroke:#181818;stroke-width:1.0;"/><line style="stroke:#181818;stroke-width:1.0;" x1="779" x2="972" y1="510.0234" y2="510.0234"/><text fill="#000000" font-family="sans-serif" font-size="13" lengthAdjust="spacing" textLength="175" x="791" y="504.9575">Check if treasure hits P1/P2</text><path d="M915,525.0234 L979,525.0234 L979,532.1563 L969,542.1563 L915,542.1563 L915,525.0234 " fill="#EEEEEE" style="stroke:#000000;stroke-width:1.5;"/><rect fill="none" height="101.3984" style="stroke:#000000;stroke-width:1.5;" width="284" x="915" y="525.0234"/><text fill="#000000" font-family="sans-serif" font-size="13" font-weight="bold" lengthAdjust="spacing" textLength="19" x="930" y="538.0903">alt</text><text fill="#000000" font-family="sans-serif" font-size="11" font-weight="bold" lengthAdjust="spacing" textLength="140" x="994" y="537.2339">[If treasure collected]</text><line style="stroke:#181818;stroke-width:1.0;" x1="973" x2="1015" y1="563.2891" y2="563.2891"/><line style="stroke:#181818;stroke-width:1.0;" x1="1015" x2="1015" y1="563.2891" y2="576.2891"/><line style="stroke:#181818;stroke-width:1.0;" x1="974" x2="1015" y1="576.2891" y2="576.2891"/><polygon fill="#181818" points="984,572.2891,974,576.2891,984,580.2891,980,576.2891" style="stroke:#181818;stroke-width:1.0;"/><text fill="#000000" font-family="sans-serif" font-size="13" lengthAdjust="spacing" textLength="207" x="980" y="558.2231">Apply random buff to that player</text><line style="stroke:#181818;stroke-width:1.0;" x1="973" x2="1015" y1="605.4219" y2="605.4219"/><line style="stroke:#181818;stroke-width:1.0;" x1="1015" x2="1015" y1="605.4219" y2="618.4219"/><line style="stroke:#181818;stroke-width:1.0;" x1="974" x2="1015" y1="618.4219" y2="618.4219"/><polygon fill="#181818" points="984,614.4219,974,618.4219,984,622.4219,980,618.4219" style="stroke:#181818;stroke-width:1.0;"/><text fill="#000000" font-family="sans-serif" font-size="13" lengthAdjust="spacing" textLength="136" x="980" y="600.356">Show buff notification</text><rect fill="#EEEEEE" height="3" style="stroke:#EEEEEE;stroke-width:1.0;" width="1611" x="0" y="660.9883"/><line style="stroke:#000000;stroke-width:1.0;" x1="0" x2="1611" y1="660.9883" y2="660.9883"/><line style="stroke:#000000;stroke-width:1.0;" x1="0" x2="1611" y1="663.9883" y2="663.9883"/><rect fill="#EEEEEE" height="23.1328" style="stroke:#000000;stroke-width:2.0;" width="220" x="695.5" y="650.4219"/><text fill="#000000" font-family="sans-serif" font-size="13" font-weight="bold" lengthAdjust="spacing" textLength="201" x="701.5" y="666.4888">2. Damage and Game Over</text><line style="stroke:#181818;stroke-width:1.0;" x1="610" x2="652" y1="704.6875" y2="704.6875"/><line style="stroke:#181818;stroke-width:1.0;" x1="652" x2="652" y1="704.6875" y2="717.6875"/><line style="stroke:#181818;stroke-width:1.0;" x1="611" x2="652" y1="717.6875" y2="717.6875"/><polygon fill="#181818" points="621,713.6875,611,717.6875,621,721.6875,617,717.6875" style="stroke:#181818;stroke-width:1.0;"/><text fill="#000000" font-family="sans-serif" font-size="13" lengthAdjust="spacing" textLength="110" x="617" y="699.6216">Fire enemy bullet</text><polygon fill="#181818" points="400,742.8203,390,746.8203,400,750.8203,396,746.8203" style="stroke:#181818;stroke-width:1.0;"/><line style="stroke:#181818;stroke-width:1.0;" x1="394" x2="609" y1="746.8203" y2="746.8203"/><text fill="#000000" font-family="sans-serif" font-size="13" lengthAdjust="spacing" textLength="197" x="406" y="741.7544">Enemy bullet moves downward</text><polygon fill="#181818" points="762,771.9531,772,775.9531,762,779.9531,766,775.9531" style="stroke:#181818;stroke-width:1.0;"/><line style="stroke:#181818;stroke-width:1.0;" x1="389" x2="768" y1="775.9531" y2="775.9531"/><text fill="#000000" font-family="sans-serif" font-size="13" lengthAdjust="spacing" textLength="207" x="396" y="770.8872">Check if enemy bullet hits player</text><path d="M192,790.9531 L256,790.9531 L256,798.0859 L246,808.0859 L192,808.0859 L192,790.9531 " fill="#EEEEEE" style="stroke:#000000;stroke-width:1.5;"/><rect fill="none" height="221.9297" style="stroke:#000000;stroke-width:1.5;" width="1152" x="192" y="790.9531"/><text fill="#000000" font-family="sans-serif" font-size="13" font-weight="bold" lengthAdjust="spacing" textLength="19" x="207" y="804.02">alt</text><text fill="#000000" font-family="sans-serif" font-size="11" font-weight="bold" lengthAdjust="spacing" textLength="133" x="271" y="803.1636">[If player has shield]</text><polygon fill="#181818" points="400,825.2188,390,829.2188,400,833.2188,396,829.2188" style="stroke:#181818;stroke-width:1.0;"/><line style="stroke:#181818;stroke-width:1.0;" x1="394" x2="773" y1="829.2188" y2="829.2188"/><text fill="#000000" font-family="sans-serif" font-size="13" lengthAdjust="spacing" textLength="98" x="406" y="824.1528">Block the bullet</text><line style="stroke:#000000;stroke-width:1.0;stroke-dasharray:2.0,2.0;" x1="192" x2="1344" y1="838.2188" y2="838.2188"/><polygon fill="#181818" points="1182,856.3516,1192,860.3516,1182,864.3516,1186,860.3516" style="stroke:#181818;stroke-width:1.0;"/><line style="stroke:#181818;stroke-width:1.0;" x1="774" x2="1188" y1="860.3516" y2="860.3516"/><text fill="#000000" font-family="sans-serif" font-size="13" lengthAdjust="spacing" textLength="69" x="781" y="855.2856">Reduce HP</text><line style="stroke:#181818;stroke-width:1.0;" x1="1194" x2="1236" y1="889.4844" y2="889.4844"/><line style="stroke:#181818;stroke-width:1.0;" x1="1236" x2="1236" y1="889.4844" y2="902.4844"/><line style="stroke:#181818;stroke-width:1.0;" x1="1195" x2="1236" y1="902.4844" y2="902.4844"/><polygon fill="#181818" points="1205,898.4844,1195,902.4844,1205,906.4844,1201,902.4844" style="stroke:#181818;stroke-width:1.0;"/><text fill="#000000" font-family="sans-serif" font-size="13" lengthAdjust="spacing" textLength="94" x="1201" y="884.4185">Update HP bar</text><path d="M202,917.4844 L266,917.4844 L266,924.6172 L256,934.6172 L202,934.6172 L202,917.4844 " fill="#EEEEEE" style="stroke:#000000;stroke-width:1.5;"/><rect fill="none" height="88.3984" style="stroke:#000000;stroke-width:1.5;" width="1132" x="202" y="917.4844"/><text fill="#000000" font-family="sans-serif" font-size="13" font-weight="bold" lengthAdjust="spacing" textLength="19" x="217" y="930.5513">alt</text><text fill="#000000" font-family="sans-serif" font-size="11" font-weight="bold" lengthAdjust="spacing" textLength="176" x="281" y="929.6948">[If HP &lt;= 0 or totalHP == 0]</text><line style="stroke:#181818;stroke-width:1.0;" x1="1194" x2="1236" y1="955.75" y2="955.75"/><line style="stroke:#181818;stroke-width:1.0;" x1="1236" x2="1236" y1="955.75" y2="968.75"/><line style="stroke:#181818;stroke-width:1.0;" x1="1195" x2="1236" y1="968.75" y2="968.75"/><polygon fill="#181818" points="1205,964.75,1195,968.75,1205,972.75,1201,968.75" style="stroke:#181818;stroke-width:1.0;"/><text fill="#000000" font-family="sans-serif" font-size="13" lengthAdjust="spacing" textLength="121" x="1201" y="950.6841">Trigger Game Over</text><polygon fill="#181818" points="278,993.8828,268,997.8828,278,1001.8828,274,997.8828" style="stroke:#181818;stroke-width:1.0;"/><line style="stroke:#181818;stroke-width:1.0;" x1="272" x2="1193" y1="997.8828" y2="997.8828"/><text fill="#000000" font-family="sans-serif" font-size="13" lengthAdjust="spacing" textLength="158" x="284" y="992.8169">Show Game Over screen</text><rect fill="#EEEEEE" height="3" style="stroke:#EEEEEE;stroke-width:1.0;" width="1611" x="0" y="1040.4492"/><line style="stroke:#000000;stroke-width:1.0;" x1="0" x2="1611" y1="1040.4492" y2="1040.4492"/><line style="stroke:#000000;stroke-width:1.0;" x1="0" x2="1611" y1="1043.4492" y2="1043.4492"/><rect fill="#EEEEEE" height="23.1328" style="stroke:#000000;stroke-width:2.0;" width="240" x="685.5" y="1029.8828"/><text fill="#000000" font-family="sans-serif" font-size="13" font-weight="bold" lengthAdjust="spacing" textLength="221" x="691.5" y="1045.9497">3. Double Player Coordination</text><polygon fill="#181818" points="255,1080.1484,265,1084.1484,255,1088.1484,259,1084.1484" style="stroke:#181818;stroke-width:1.0;"/><line style="stroke:#181818;stroke-width:1.0;" x1="33" x2="261" y1="1084.1484" y2="1084.1484"/><text fill="#000000" font-family="sans-serif" font-size="13" lengthAdjust="spacing" textLength="115" x="40" y="1079.0825">Move using WASD</text><polygon fill="#181818" points="255,1109.2813,265,1113.2813,255,1117.2813,259,1113.2813" style="stroke:#181818;stroke-width:1.0;"/><line style="stroke:#181818;stroke-width:1.0;" x1="99" x2="261" y1="1113.2813" y2="1113.2813"/><text fill="#000000" font-family="sans-serif" font-size="13" lengthAdjust="spacing" textLength="144" x="106" y="1108.2153">Move using arrow keys</text><polygon fill="#181818" points="1182,1138.4141,1192,1142.4141,1182,1146.4141,1186,1142.4141" style="stroke:#181818;stroke-width:1.0;"/><line style="stroke:#181818;stroke-width:1.0;" x1="267" x2="1188" y1="1142.4141" y2="1142.4141"/><text fill="#000000" font-family="sans-serif" font-size="13" lengthAdjust="spacing" textLength="147" x="274" y="1137.3481">Update plane positions</text><line style="stroke:#181818;stroke-width:1.0;" x1="1194" x2="1236" y1="1171.5469" y2="1171.5469"/><line style="stroke:#181818;stroke-width:1.0;" x1="1236" x2="1236" y1="1171.5469" y2="1184.5469"/><line style="stroke:#181818;stroke-width:1.0;" x1="1195" x2="1236" y1="1184.5469" y2="1184.5469"/><polygon fill="#181818" points="1205,1180.5469,1195,1184.5469,1205,1188.5469,1201,1184.5469" style="stroke:#181818;stroke-width:1.0;"/><text fill="#000000" font-family="sans-serif" font-size="13" lengthAdjust="spacing" textLength="192" x="1201" y="1166.481">Update both shields' positions</text><path d="M1124.5,1199.5469 L1188.5,1199.5469 L1188.5,1206.6797 L1178.5,1216.6797 L1124.5,1216.6797 L1124.5,1199.5469 " fill="#EEEEEE" style="stroke:#000000;stroke-width:1.5;"/><rect fill="none" height="59.2656" style="stroke:#000000;stroke-width:1.5;" width="234" x="1124.5" y="1199.5469"/><text fill="#000000" font-family="sans-serif" font-size="13" font-weight="bold" lengthAdjust="spacing" textLength="19" x="1139.5" y="1212.6138">alt</text><text fill="#000000" font-family="sans-serif" font-size="11" font-weight="bold" lengthAdjust="spacing" textLength="150" x="1203.5" y="1211.7573">[If double player mode]</text><line style="stroke:#181818;stroke-width:1.0;" x1="1194" x2="1236" y1="1237.8125" y2="1237.8125"/><line style="stroke:#181818;stroke-width:1.0;" x1="1236" x2="1236" y1="1237.8125" y2="1250.8125"/><line style="stroke:#181818;stroke-width:1.0;" x1="1195" x2="1236" y1="1250.8125" y2="1250.8125"/><polygon fill="#181818" points="1205,1246.8125,1195,1250.8125,1205,1254.8125,1201,1250.8125" style="stroke:#181818;stroke-width:1.0;"/><text fill="#000000" font-family="sans-serif" font-size="13" lengthAdjust="spacing" textLength="124" x="1201" y="1232.7466">Share total HP pool</text><rect fill="#EEEEEE" height="3" style="stroke:#EEEEEE;stroke-width:1.0;" width="1611" x="0" y="1286.3789"/><line style="stroke:#000000;stroke-width:1.0;" x1="0" x2="1611" y1="1286.3789" y2="1286.3789"/><line style="stroke:#000000;stroke-width:1.0;" x1="0" x2="1611" y1="1289.3789" y2="1289.3789"/><rect fill="#EEEEEE" height="23.1328" style="stroke:#000000;stroke-width:2.0;" width="290" x="660.5" y="1275.8125"/><text fill="#000000" font-family="sans-serif" font-size="13" font-weight="bold" lengthAdjust="spacing" textLength="271" x="666.5" y="1291.8794">4. Pause, Resume, and Leaderboard</text><polygon fill="#181818" points="255,1326.0781,265,1330.0781,255,1334.0781,259,1330.0781" style="stroke:#181818;stroke-width:1.0;"/><line style="stroke:#181818;stroke-width:1.0;" x1="33" x2="261" y1="1330.0781" y2="1330.0781"/><text fill="#000000" font-family="sans-serif" font-size="13" lengthAdjust="spacing" textLength="105" x="40" y="1325.0122">Press Space key</text><polygon fill="#181818" points="1182,1355.2109,1192,1359.2109,1182,1363.2109,1186,1359.2109" style="stroke:#181818;stroke-width:1.0;"/><line style="stroke:#181818;stroke-width:1.0;" x1="267" x2="1188" y1="1359.2109" y2="1359.2109"/><text fill="#000000" font-family="sans-serif" font-size="13" lengthAdjust="spacing" textLength="129" x="274" y="1354.145">Toggle pause status</text><path d="M325,1374.2109 L389,1374.2109 L389,1381.3438 L379,1391.3438 L325,1391.3438 L325,1374.2109 " fill="#EEEEEE" style="stroke:#000000;stroke-width:1.5;"/><rect fill="none" height="278.1953" style="stroke:#000000;stroke-width:1.5;" width="1015" x="325" y="1374.2109"/><text fill="#000000" font-family="sans-serif" font-size="13" font-weight="bold" lengthAdjust="spacing" textLength="19" x="340" y="1387.2778">alt</text><text fill="#000000" font-family="sans-serif" font-size="11" font-weight="bold" lengthAdjust="spacing" textLength="70" x="404" y="1386.4214">[If paused]</text><polygon fill="#181818" points="400,1408.4766,390,1412.4766,400,1416.4766,396,1412.4766" style="stroke:#181818;stroke-width:1.0;"/><line style="stroke:#181818;stroke-width:1.0;" x1="394" x2="1193" y1="1412.4766" y2="1412.4766"/><text fill="#000000" font-family="sans-serif" font-size="13" lengthAdjust="spacing" textLength="103" x="406" y="1407.4106">Pause all bullets</text><polygon fill="#181818" points="621,1437.6094,611,1441.6094,621,1445.6094,617,1441.6094" style="stroke:#181818;stroke-width:1.0;"/><line style="stroke:#181818;stroke-width:1.0;" x1="615" x2="1193" y1="1441.6094" y2="1441.6094"/><text fill="#000000" font-family="sans-serif" font-size="13" lengthAdjust="spacing" textLength="116" x="627" y="1436.5435">Pause all enemies</text><polygon fill="#181818" points="984,1466.7422,974,1470.7422,984,1474.7422,980,1470.7422" style="stroke:#181818;stroke-width:1.0;"/><line style="stroke:#181818;stroke-width:1.0;" x1="978" x2="1193" y1="1470.7422" y2="1470.7422"/><text fill="#000000" font-family="sans-serif" font-size="13" lengthAdjust="spacing" textLength="92" x="990" y="1465.6763">Pause all buffs</text><line style="stroke:#181818;stroke-width:1.0;" x1="1194" x2="1236" y1="1499.875" y2="1499.875"/><line style="stroke:#181818;stroke-width:1.0;" x1="1236" x2="1236" y1="1499.875" y2="1512.875"/><line style="stroke:#181818;stroke-width:1.0;" x1="1195" x2="1236" y1="1512.875" y2="1512.875"/><polygon fill="#181818" points="1205,1508.875,1195,1512.875,1205,1516.875,1201,1512.875" style="stroke:#181818;stroke-width:1.0;"/><text fill="#000000" font-family="sans-serif" font-size="13" lengthAdjust="spacing" textLength="127" x="1201" y="1494.8091">Show pause overlay</text><line style="stroke:#000000;stroke-width:1.0;stroke-dasharray:2.0,2.0;" x1="325" x2="1340" y1="1521.875" y2="1521.875"/><polygon fill="#181818" points="400,1540.0078,390,1544.0078,400,1548.0078,396,1544.0078" style="stroke:#181818;stroke-width:1.0;"/><line style="stroke:#181818;stroke-width:1.0;" x1="394" x2="1193" y1="1544.0078" y2="1544.0078"/><text fill="#000000" font-family="sans-serif" font-size="13" lengthAdjust="spacing" textLength="98" x="406" y="1538.9419">Resume bullets</text><polygon fill="#181818" points="621,1569.1406,611,1573.1406,621,1577.1406,617,1573.1406" style="stroke:#181818;stroke-width:1.0;"/><line style="stroke:#181818;stroke-width:1.0;" x1="615" x2="1193" y1="1573.1406" y2="1573.1406"/><text fill="#000000" font-family="sans-serif" font-size="13" lengthAdjust="spacing" textLength="111" x="627" y="1568.0747">Resume enemies</text><polygon fill="#181818" points="984,1598.2734,974,1602.2734,984,1606.2734,980,1602.2734" style="stroke:#181818;stroke-width:1.0;"/><line style="stroke:#181818;stroke-width:1.0;" x1="978" x2="1193" y1="1602.2734" y2="1602.2734"/><text fill="#000000" font-family="sans-serif" font-size="13" lengthAdjust="spacing" textLength="87" x="990" y="1597.2075">Resume buffs</text><line style="stroke:#181818;stroke-width:1.0;" x1="1194" x2="1236" y1="1631.4063" y2="1631.4063"/><line style="stroke:#181818;stroke-width:1.0;" x1="1236" x2="1236" y1="1631.4063" y2="1644.4063"/><line style="stroke:#181818;stroke-width:1.0;" x1="1195" x2="1236" y1="1644.4063" y2="1644.4063"/><polygon fill="#181818" points="1205,1640.4063,1195,1644.4063,1205,1648.4063,1201,1644.4063" style="stroke:#181818;stroke-width:1.0;"/><text fill="#000000" font-family="sans-serif" font-size="13" lengthAdjust="spacing" textLength="122" x="1201" y="1626.3403">Hide pause overlay</text><polygon fill="#181818" points="1415,1676.5391,1425,1680.5391,1415,1684.5391,1419,1680.5391" style="stroke:#181818;stroke-width:1.0;"/><line style="stroke:#181818;stroke-width:1.0;" x1="1194" x2="1421" y1="1680.5391" y2="1680.5391"/><text fill="#000000" font-family="sans-serif" font-size="13" lengthAdjust="spacing" textLength="209" x="1201" y="1675.4731">Submit final score (P1 or P1&amp;P2)</text><line style="stroke:#181818;stroke-width:1.0;" x1="1427" x2="1469" y1="1709.6719" y2="1709.6719"/><line style="stroke:#181818;stroke-width:1.0;" x1="1469" x2="1469" y1="1709.6719" y2="1722.6719"/><line style="stroke:#181818;stroke-width:1.0;" x1="1428" x2="1469" y1="1722.6719" y2="1722.6719"/><polygon fill="#181818" points="1438,1718.6719,1428,1722.6719,1438,1726.6719,1434,1722.6719" style="stroke:#181818;stroke-width:1.0;"/><text fill="#000000" font-family="sans-serif" font-size="13" lengthAdjust="spacing" textLength="170" x="1434" y="1704.606">Save and sort leaderboard</text><polygon fill="#181818" points="278,1747.8047,268,1751.8047,278,1755.8047,274,1751.8047" style="stroke:#181818;stroke-width:1.0;"/><line style="stroke:#181818;stroke-width:1.0;" x1="272" x2="1426" y1="1751.8047" y2="1751.8047"/><text fill="#000000" font-family="sans-serif" font-size="13" lengthAdjust="spacing" textLength="163" x="284" y="1746.7388">Display leaderboard page</text><!--MD5=[dbafc1f4eab04d98082336e9c0789876]
@startuml
actor Player1
actor Player2
participant "Event Handler" as Event
participant "Bullet System" as Bullet
participant "Enemy System" as Enemy
participant "Collision Checker" as Collision
participant "Buff System" as Buff
participant "Game Manager" as Game
participant "Leaderboard System" as Rank

== 1. Attack and Buff Phase ==

Player1 -> Event : Press fire key (F)
Event -> Bullet : P1 fires a bullet
Player2 -> Event : Press fire key (L)
Event -> Bullet : P2 fires a bullet

Bullet -> Bullet : Bullets move upward
Bullet -> Collision : Check if bullet hits enemy
Collision -> Enemy : Enemy takes damage

alt If enemy HP <= 0
    Enemy -> Enemy : Enemy explodes
    Enemy -> Buff : Drop treasure
    Buff -> Buff : Treasure falls down
    Buff -> Collision : Check if treasure hits P1/P2

    alt If treasure collected
        Buff -> Buff : Apply random buff to that player
        Buff -> Buff : Show buff notification
    end
end

== 2. Damage and Game Over ==

Enemy -> Enemy : Fire enemy bullet
Enemy -> Bullet : Enemy bullet moves downward
Bullet -> Collision : Check if enemy bullet hits player

alt If player has shield
    Collision -> Bullet : Block the bullet
else
    Collision -> Game : Reduce HP
    Game -> Game : Update HP bar

    alt If HP <= 0 or totalHP == 0
        Game -> Game : Trigger Game Over
        Game -> Event : Show Game Over screen
    end
end

== 3. Double Player Coordination ==

Player1 -> Event : Move using WASD
Player2 -> Event : Move using arrow keys

Event -> Game : Update plane positions
Game -> Game : Update both shields' positions

alt If double player mode
    Game -> Game : Share total HP pool
end

== 4. Pause, Resume, and Leaderboard ==

Player1 -> Event : Press Space key
Event -> Game : Toggle pause status

alt If paused
    Game -> Bullet : Pause all bullets
    Game -> Enemy : Pause all enemies
    Game -> Buff : Pause all buffs
    Game -> Game : Show pause overlay
else
    Game -> Bullet : Resume bullets
    Game -> Enemy : Resume enemies
    Game -> Buff : Resume buffs
    Game -> Game : Hide pause overlay
end

Game -> Rank : Submit final score (P1 or P1&P2)
Rank -> Rank : Save and sort leaderboard
Rank -> Event : Display leaderboard page
@enduml

PlantUML version 1.2022.7(Mon Aug 22 17:01:30 UTC 2022)
(GPL source distribution)
Java Runtime: OpenJDK Runtime Environment
JVM: OpenJDK 64-Bit Server VM
Default Encoding: UTF-8
Language: en
Country: null
--></g></svg>